<svg width="28" height="28" viewBox="0 0 28 28" fill="none" xmlns="http://www.w3.org/2000/svg">
<path d="M9.94961 8.7881C10.2928 8.44792 10.2953 7.8939 9.95513 7.55067C9.61495 7.20744 9.06094 7.20497 8.71771 7.54515L6.62385 9.62041C5.83522 10.402 5.19066 11.0408 4.73356 11.61C4.25823 12.2019 3.91414 12.8026 3.82222 13.5238C3.78192 13.84 3.78192 14.16 3.82222 14.4762C3.91414 15.1973 4.25823 15.798 4.73356 16.3899C5.19067 16.9591 5.83522 17.5979 6.62386 18.3795L8.71771 20.4548C9.06094 20.7949 9.61495 20.7925 9.95513 20.4492C10.2953 20.106 10.2928 19.552 9.94961 19.2118L7.89281 17.1733C7.05807 16.346 6.48547 15.7766 6.09802 15.2941C5.9721 15.1374 5.87386 14.9993 5.79759 14.875L23.3337 14.875C23.8169 14.875 24.2087 14.4832 24.2087 14C24.2087 13.5167 23.8169 13.125 23.3337 13.125L5.79759 13.125C5.87386 13.0006 5.9721 12.8626 6.09802 12.7058C6.48547 12.2233 7.05807 11.654 7.89281 10.8266L9.94961 8.7881Z" fill="#0B84BC"/>
</svg>
