<svg width="17" height="16" viewBox="0 0 17 16" fill="none" xmlns="http://www.w3.org/2000/svg">
<path d="M4.8537 6.31312C4.65844 6.11786 4.34186 6.11786 4.14659 6.31312C3.95133 6.50838 3.95133 6.82496 4.14659 7.02023L4.54659 7.42023C6.73008 9.60371 10.2702 9.60371 12.4537 7.42023L12.8537 7.02023C13.049 6.82496 13.049 6.50838 12.8537 6.31312C12.6584 6.11786 12.3419 6.11786 12.1466 6.31312L11.7466 6.71312C9.95363 8.50608 7.04666 8.50608 5.2537 6.71312L4.8537 6.31312Z" fill="#FEFEFE"/>
<path fill-rule="evenodd" clip-rule="evenodd" d="M8.50015 0.166672C6.55251 0.166672 4.94427 1.61902 4.69916 3.50001L4.25744 3.5C3.59365 3.49998 3.04319 3.49997 2.61118 3.56033C2.15702 3.62379 1.74893 3.7639 1.43858 4.11065C1.12823 4.4574 1.03403 4.87846 1.02112 5.33685C1.00883 5.77288 1.06964 6.31997 1.14296 6.9797L1.34822 8.82703C1.50157 10.2073 1.62202 11.2913 1.82658 12.1339C2.03626 12.9975 2.34812 13.6715 2.92709 14.1897C3.50661 14.7084 4.21426 14.9436 5.10052 15.0565C5.96581 15.1667 7.06458 15.1667 8.46447 15.1667H8.53581C9.9357 15.1667 11.0345 15.1667 11.8998 15.0565C12.786 14.9436 13.4937 14.7084 14.0732 14.1897C14.6522 13.6715 14.964 12.9975 15.1737 12.1339C15.3783 11.2913 15.4987 10.2073 15.6521 8.8271L15.8573 6.97969C15.9307 6.31998 15.9915 5.77288 15.9792 5.33685C15.9663 4.87846 15.8721 4.4574 15.5617 4.11065C15.2514 3.7639 14.8433 3.62379 14.3891 3.56033C13.9571 3.49997 13.4066 3.49998 12.7428 3.5L12.3011 3.50001C12.0561 1.61906 10.4478 0.166672 8.50015 0.166672ZM8.50015 1.16667C9.89434 1.16667 11.0534 2.17376 11.2895 3.50001H5.71075C5.94682 2.17379 7.10596 1.16667 8.50015 1.16667ZM2.18371 4.77757C2.27085 4.68021 2.40912 4.59828 2.74957 4.55071C3.10419 4.50116 3.58418 4.50001 4.29433 4.50001H12.706C13.4161 4.50001 13.8961 4.50116 14.2507 4.55071C14.5912 4.59828 14.7294 4.68021 14.8166 4.77757C14.9037 4.87493 14.9699 5.0214 14.9796 5.36502C14.9897 5.72294 14.9378 6.20013 14.8594 6.90594L14.6621 8.681C14.504 10.1046 14.3896 11.1249 14.2019 11.8979C14.0176 12.6571 13.7765 13.1132 13.4063 13.4445C13.0366 13.7754 12.5546 13.965 11.7734 14.0645C10.9786 14.1657 9.9435 14.1667 8.50015 14.1667C7.0568 14.1667 6.02168 14.1657 5.22688 14.0645C4.4457 13.965 3.96369 13.7754 3.59401 13.4445C3.22378 13.1132 2.98268 12.6571 2.79835 11.8979C2.61066 11.1249 2.49633 10.1046 2.33815 8.681L2.14092 6.90594C2.0625 6.20013 2.01064 5.72295 2.02072 5.36502C2.0304 5.0214 2.09657 4.87493 2.18371 4.77757Z" fill="#FEFEFE"/>
</svg>
