<svg width="20" height="20" viewBox="0 0 20 20" fill="none" xmlns="http://www.w3.org/2000/svg">
<path d="M0.9375 3.75H19.0625C19.3111 3.75 19.5496 3.84877 19.7254 4.02459C19.9012 4.2004 20 4.43886 20 4.6875C20 4.93614 19.9012 5.1746 19.7254 5.35041C19.5496 5.52623 19.3111 5.625 19.0625 5.625H0.9375C0.68886 5.625 0.450403 5.52623 0.274587 5.35041C0.098772 5.1746 0 4.93614 0 4.6875C0 4.43886 0.098772 4.2004 0.274587 4.02459C0.450403 3.84877 0.68886 3.75 0.9375 3.75ZM3.75 9.6875C3.75 9.43886 3.84877 9.2004 4.02459 9.02459C4.2004 8.84877 4.43886 8.75 4.6875 8.75H15.3125C15.5611 8.75 15.7996 8.84877 15.9754 9.02459C16.1512 9.2004 16.25 9.43886 16.25 9.6875C16.25 9.93614 16.1512 10.1746 15.9754 10.3504C15.7996 10.5262 15.5611 10.625 15.3125 10.625H4.6875C4.43886 10.625 4.2004 10.5262 4.02459 10.3504C3.84877 10.1746 3.75 9.93614 3.75 9.6875ZM7.5 14.6875C7.5 14.4389 7.59877 14.2004 7.77459 14.0246C7.9504 13.8488 8.18886 13.75 8.4375 13.75H11.5625C11.8111 13.75 12.0496 13.8488 12.2254 14.0246C12.4012 14.2004 12.5 14.4389 12.5 14.6875C12.5 14.9361 12.4012 15.1746 12.2254 15.3504C12.0496 15.5262 11.8111 15.625 11.5625 15.625H8.4375C8.18886 15.625 7.9504 15.5262 7.77459 15.3504C7.59877 15.1746 7.5 14.9361 7.5 14.6875Z" fill="#0B84BC"/>
</svg>
